<svg version="1.1" viewBox="0.0 0.0 720.0 720.0" fill="none" stroke="none" stroke-linecap="square" stroke-miterlimit="10" xmlns:xlink="http://www.w3.org/1999/xlink" xmlns="http://www.w3.org/2000/svg"><clipPath id="p.0"><path d="m0 0l720.0 0l0 720.0l-720.0 0l0 -720.0z" clip-rule="nonzero"/></clipPath><g clip-path="url(#p.0)"><path fill="#000000" fill-opacity="0.0" d="m0 0l720.0 0l0 720.0l-720.0 0z" fill-rule="evenodd"/><path fill="#02ae93" d="m12.204724 360.0l0 0c0 -190.78612 155.71324 -345.44882 347.7953 -345.44882l0 0c92.24103 0 180.7041 36.395397 245.9284 101.17962c65.22424 64.78422 101.86688 152.65048 101.86688 244.2692l0 0c0 190.78613 -155.71326 345.4488 -347.7953 345.4488l0 0c-192.08203 0 -347.7953 -154.66266 -347.7953 -345.4488z" fill-rule="evenodd"/><path fill="#023047" d="m1010.4347 355.22772c2.8076172 0 5.015259 1.438446 6.622986 4.3153076c1.6317749 2.8768616 2.4476318 7.4079285 2.4476318 13.593201c0 10.740326 -2.8795776 24.357513 -8.638672 40.851562c-9.28656 -6.90448 -13.92981 -17.58487 -13.92981 -32.041138c0 -8.534729 1.2478027 -15.11557 3.7434082 -19.742523c2.5195923 -4.65094 5.771118 -6.97641 9.754456 -6.97641zm5.3272095 -25.172607c-7.678833 0 -14.649719 1.9898376 -20.91278 5.969513c-6.2630615 3.9556885 -11.206238 9.949158 -14.829712 17.980438c-3.5994263 8.03125 -5.39917 17.860565 -5.39917 29.487915c0 11.651306 2.279663 21.936127 6.838928 30.8544c4.583313 8.894318 11.362244 16.146454 20.336853 21.756348c-7.2228394 15.894684 -15.189636 29.188232 -23.900269 39.880585c-8.6866455 10.668396 -16.557434 16.002594 -23.612366 16.002594c-6.047058 0 -10.666382 -2.5412292 -13.857849 -7.6237183c-3.1675415 -5.0824585 -5.3032227 -12.478394 -6.4070435 -22.187836c-1.1038208 -9.733429 -1.6557007 -22.775238 -1.6557007 -39.125427c0 -23.997894 2.0636597 -48.00775 6.19104 -72.02963c0.31195068 -1.3185425 0.4678955 -3.1525574 0.4678955 -5.502014c0 -3.9796448 -1.079834 -6.9644165 -3.239502 -8.954254c-2.1356812 -1.9898376 -5.4831543 -2.9847412 -10.042419 -2.9847412c-5.4472046 0 -9.766541 1.2945862 -12.958008 3.8837585c-3.1675415 2.565216 -5.3391724 7.240143 -6.5150146 14.02475c-5.0151978 29.439972 -11.134277 54.80435 -18.357178 76.0932c-7.2228394 21.288818 -14.4817505 37.35135 -21.776611 48.18756c-7.294861 10.812225 -13.521912 16.218353 -18.681152 16.218353c-5.759094 0 -10.330383 -5.3701477 -13.713867 -16.110474c-3.383484 -10.764282 -5.0751953 -26.011688 -5.0751953 -45.742218c0 -21.216919 2.2076416 -46.91696 6.622986 -77.1001c0.28790283 -2.9487915 0.43188477 -4.938629 0.43188477 -5.969513c0 -5.1543884 -1.211792 -8.690552 -3.635437 -10.608459c-2.423584 -1.9179077 -5.8550415 -2.8768616 -10.294373 -2.8768616c-5.8790894 0 -10.186462 1.438446 -12.921997 4.3153076c-2.7355957 2.8768616 -4.6193237 7.9953003 -5.651123 15.355286c-3.8394165 25.915802 -5.7591553 49.697906 -5.7591553 71.346375c0 29.751617 3.6114502 53.437836 10.834351 71.058655c7.246887 17.596863 17.937195 26.395264 32.071045 26.395264c12.550049 0 24.380249 -6.257141 35.49054 -18.771545c11.134277 -12.538361 21.128723 -31.621582 29.983337 -57.249695c0.8878784 23.134827 4.571289 41.594727 11.050293 55.37973c6.5029907 13.761017 16.23352 20.64151 29.191528 20.64151c14.157776 0 28.495605 -7.252075 43.013367 -21.756287c14.517761 -14.528198 26.935852 -32.760376 37.25421 -54.696503c8.661011 1.7841187 18.329102 2.676178 29.004272 2.676178c0.8006592 0 1.6069336 -0.0050354004 2.4189453 -0.015075684c4.871216 -0.16781616 8.446655 -1.7141418 10.726318 -4.6389465c2.279663 -2.9487915 3.4194336 -6.341095 3.4194336 -10.17691c0 -2.3494568 -0.7799072 -4.255371 -2.3395996 -5.717804c-1.5357666 -1.4863586 -3.9953613 -2.2295532 -7.3789062 -2.2295532c-10.174438 0 -19.01709 -0.67126465 -26.527832 -2.0138245c7.2229004 -20.305908 10.8342285 -38.789795 10.8342285 -55.45166c0 -11.771179 -2.7714844 -21.03711 -8.314697 -27.79773c-5.519165 -6.7846375 -12.994019 -10.176941 -22.4245 -10.176941z" fill-rule="evenodd"/><path fill="#023047" d="m1061.2897 33.906826c-17.497559 0 -33.422485 4.689331 -47.774414 14.067993c-14.352051 9.378666 -25.71814 22.628468 -34.098328 39.749416c-8.380188 17.096527 -12.570251 36.672043 -12.570251 58.726555c0 15.899765 3.5510864 29.857864 10.653381 41.874268c7.102295 11.992004 17.288757 21.260757 30.559448 27.806274c13.295288 6.521103 28.925232 9.781647 46.88971 9.781647c10.420044 0 21.405151 -1.0868378 32.955566 -3.2605438c11.550415 -2.173706 22.683105 -5.5930176 33.39795 -10.257919c9.977539 -4.347397 14.966309 -11.100525 14.966309 -20.259369c0 -2.8575592 -0.6020508 -5.1778107 -1.8062744 -6.960739c-1.2042236 -1.8073425 -3.022705 -2.7110138 -5.4556885 -2.7110138c-1.4991455 0 -3.3791504 0.45184326 -5.6400146 1.3555145c-12.238525 5.104538 -23.383545 8.890198 -33.434814 11.356979c-10.026733 2.4667816 -19.942871 3.7001648 -29.748413 3.7001648c-19.783203 0 -34.737305 -4.909134 -44.862305 -14.727432c-10.125061 -9.818283 -15.187561 -23.739746 -15.187561 -41.76436c0 -17.243065 2.7893066 -32.12925 8.36792 -44.65856c5.6031494 -12.5293045 12.926575 -22.017876 21.970276 -28.465706c9.068359 -6.4722557 18.591309 -9.708385 28.568848 -9.708385c14.646973 0 21.970337 6.826397 21.970337 20.47919c0 2.7110214 -0.45458984 6.3134995 -1.3638916 10.807449c-0.6143799 3.6146927 -0.9215088 6.093689 -0.9215088 7.436981c0 3.761238 1.2041016 6.618805 3.6125488 8.572685c2.4329834 1.9294662 5.7629395 2.8941956 9.989868 2.8941956c6.045532 0 10.690308 -2.7720795 13.934204 -8.316231c3.2438965 -5.544159 4.865967 -12.895668 4.865967 -22.05452c0 -13.652794 -4.227051 -24.643414 -12.680908 -32.971863c-8.4539795 -8.328449 -20.839966 -12.492672 -37.15796 -12.492672z" fill-rule="evenodd"/><path fill="#ffffff" d="m384.11603 122.238846c-43.335938 0 -82.77649 11.613968 -118.321655 34.841904c-35.54521 23.22792 -63.695297 56.043427 -84.45027 98.4465c-20.75499 42.34259 -31.132477 90.82483 -31.132477 145.44678c0 39.3786 8.795013 73.9483 26.38501 103.709076c17.589996 29.700317 42.818558 52.656067 75.685684 68.86719c32.92798 16.150696 71.63815 24.226013 116.13052 24.226013c25.806763 0 53.01346 -2.6917725 81.620026 -8.075317c28.606567 -5.383606 56.178467 -13.852112 82.71561 -25.405579c24.711182 -10.76709 37.066833 -27.492432 37.066833 -50.175964c0 -7.07724 -1.4912109 -12.823761 -4.473633 -17.239471c-2.9823608 -4.476227 -7.486389 -6.714325 -13.512024 -6.714325c-3.7127686 0 -8.3689575 1.1190796 -13.968506 3.3571777c-30.310822 12.642303 -57.913116 22.018188 -82.806915 28.127563c-24.832947 6.109436 -49.392 9.164124 -73.677155 9.164124c-48.99637 0 -86.032745 -12.158325 -111.10913 -36.475098c-25.0764 -24.316742 -37.614594 -58.795685 -37.61461 -103.43689c0 -42.705505 6.908188 -79.57379 20.724548 -110.60486c13.877243 -31.031067 32.01503 -54.531204 54.413345 -70.50041c22.459229 -16.029678 46.044434 -24.04454 70.755646 -24.04454c36.275574 0 54.41333 16.9068 54.41333 50.720367c0 6.714325 -1.1260071 15.636505 -3.3779907 26.766571c-1.521637 8.952423 -2.2824402 15.092102 -2.2824402 18.419006c0 9.315399 2.9823914 16.39264 8.947144 21.231781c6.0256653 4.7786865 14.272858 7.1679993 24.741669 7.1679993c14.972778 0 26.476288 -6.8655396 34.510468 -20.596619c8.03418 -13.73111 12.05127 -31.938416 12.05127 -54.62195c0 -33.81357 -10.4687805 -61.033813 -31.406342 -81.66069c-20.937592 -20.626892 -51.613586 -30.940338 -92.027954 -30.940338z" fill-rule="evenodd"/></g></svg>